<svg width="24" height="24" viewBox="0 0 24 24" fill="none" xmlns="http://www.w3.org/2000/svg">
<path d="M9.52136 13.2249C9.45067 13.2249 7.89547 13.2249 7.18856 13.2249C6.81154 13.2249 6.69373 13.0835 6.69373 12.73C6.69373 11.7875 6.69373 10.8214 6.69373 9.87882C6.69373 9.5018 6.83511 9.38398 7.18856 9.38398H9.52136C9.52136 9.31329 9.52136 7.9466 9.52136 7.31038C9.52136 6.36784 9.68631 5.47242 10.1576 4.64769C10.6524 3.7994 11.3593 3.23387 12.2547 2.90398C12.8438 2.69191 13.4329 2.59766 14.0691 2.59766H16.3784C16.7083 2.59766 16.8497 2.73904 16.8497 3.06893V5.75518C16.8497 6.08507 16.7083 6.22646 16.3784 6.22646C15.7422 6.22646 15.1059 6.22646 14.4697 6.25002C13.8335 6.25002 13.5036 6.55635 13.5036 7.21613C13.4801 7.92304 13.5036 8.60638 13.5036 9.33686H16.237C16.614 9.33686 16.7554 9.47824 16.7554 9.85526V12.7065C16.7554 13.0835 16.6376 13.2013 16.237 13.2013C15.3887 13.2013 13.5743 13.2013 13.5036 13.2013V20.883C13.5036 21.2836 13.3858 21.425 12.9617 21.425C11.972 21.425 11.0059 21.425 10.0162 21.425C9.66274 21.425 9.52136 21.2836 9.52136 20.9302C9.52136 18.456 9.52136 13.2955 9.52136 13.2249Z" fill="#2352EE"/>
</svg>
