<svg width="8" height="14" viewBox="0 0 8 14" fill="none" xmlns="http://www.w3.org/2000/svg">
<path d="M2.2296 7.90246H0.389601C0.0928012 7.90246 0 7.79746 0 7.53457V5.41435C0 5.13435 0.111201 5.04646 0.389601 5.04646H2.2296V3.5049C2.2079 2.8128 2.38106 2.12808 2.7304 1.52468C3.10426 0.914664 3.69022 0.454779 4.3824 0.228122C4.84196 0.0729882 5.32555 -0.00409919 5.812 0.000234062H7.6312C7.8912 0.000234062 8.0024 0.105233 8.0024 0.351011V2.34835C8.0024 2.59334 7.8912 2.69912 7.6312 2.69912C7.1304 2.69912 6.6288 2.69912 6.128 2.71701C5.6272 2.71701 5.3672 2.9449 5.3672 3.43568C5.3488 3.96146 5.3672 4.46934 5.3672 5.01301H7.5224C7.8192 5.01301 7.9304 5.11801 7.9304 5.4019V7.52212C7.9304 7.80212 7.8376 7.89001 7.5224 7.89001H5.3664V13.602C5.3664 13.8999 5.2736 14.0049 4.9392 14.0049H2.6192C2.3408 14.0049 2.2296 13.8999 2.2296 13.637V7.90246Z" fill="#4267B2"/>
</svg>
