<svg width="20" height="20" viewBox="0 0 20 20" fill="none" xmlns="http://www.w3.org/2000/svg">
<path d="M2.55434 6.25764C3.92554 3.53412 6.74367 1.66669 10.0013 1.66669C12.2475 1.66669 14.1338 2.49248 15.5771 3.83715L13.1869 6.2273C12.3233 5.40156 11.2247 4.98108 10.0013 4.98108C7.83082 4.98108 5.99367 6.447 5.33843 8.41669C5.17172 8.91669 5.07702 9.45077 5.07702 10C5.07702 10.5493 5.17172 11.0834 5.33843 11.5834C5.99367 13.553 7.83082 15.0189 10.0013 15.0189C11.1225 15.0189 12.0771 14.7235 12.8233 14.2235C13.7058 13.6326 14.293 12.75 14.4861 11.7084H10.0013V8.48485H17.8497C17.9483 9.03027 18.0013 9.59852 18.0013 10.1894C18.0013 12.7273 17.0922 14.8636 15.5164 16.3144C14.1376 17.5872 12.2513 18.3334 10.0013 18.3334C6.74367 18.3334 3.92554 16.4659 2.55434 13.7424C1.98995 12.6174 1.66797 11.3447 1.66797 10C1.66797 8.65535 1.98995 7.38261 2.55434 6.25764Z" fill="#E3422D"/>
</svg>
