<svg width="17" height="17" viewBox="0 0 17 17" fill="none" xmlns="http://www.w3.org/2000/svg">
<g clip-path="url(#clip0_717_214)">
<path d="M1.39825 1.68853C0.140911 2.99453 0.398245 4.38186 0.398245 8.59653C0.398245 12.0965 -0.212422 15.6052 2.98358 16.4312C3.98158 16.6879 12.8242 16.6879 13.8209 16.4299C15.1516 16.0865 16.2342 15.0072 16.3822 13.1252C16.4029 12.8625 16.4029 4.3352 16.3816 4.0672C16.2242 2.06253 14.9902 0.907197 13.3642 0.673197C12.9916 0.619197 12.9169 0.603197 11.0049 0.599864C4.22291 0.603197 2.73625 0.301197 1.39825 1.68853Z" fill="url(#paint0_linear_717_214)"/>
<path d="M8.39437 2.69229C5.97371 2.69229 3.67504 2.47695 2.79704 4.73029C2.43438 5.66095 2.48704 6.86962 2.48704 8.60029C2.48704 10.119 2.43838 11.5463 2.79704 12.4696C3.67304 14.7243 5.99038 14.5083 8.39304 14.5083C10.711 14.5083 13.101 14.7496 13.9897 12.4696C14.353 11.5296 14.2997 10.339 14.2997 8.60029C14.2997 6.29229 14.427 4.80229 13.3077 3.68362C12.1744 2.55029 10.6417 2.69229 8.39171 2.69229H8.39437ZM7.86504 3.75695C12.9144 3.74895 13.557 3.18762 13.2024 10.9856C13.0764 13.7436 10.9764 13.441 8.39504 13.441C3.68838 13.441 3.55304 13.3063 3.55304 8.59762C3.55304 3.83429 3.92638 3.75962 7.86504 3.75562V3.75695ZM11.5477 4.73762C11.1564 4.73762 10.839 5.05495 10.839 5.44629C10.839 5.83762 11.1564 6.15495 11.5477 6.15495C11.939 6.15495 12.2564 5.83762 12.2564 5.44629C12.2564 5.05495 11.939 4.73762 11.5477 4.73762ZM8.39437 5.56629C6.71904 5.56629 5.36104 6.92495 5.36104 8.60029C5.36104 10.2756 6.71904 11.6336 8.39437 11.6336C10.0697 11.6336 11.427 10.2756 11.427 8.60029C11.427 6.92495 10.0697 5.56629 8.39437 5.56629ZM8.39437 6.63095C10.9977 6.63095 11.001 10.5696 8.39437 10.5696C5.79171 10.5696 5.78771 6.63095 8.39437 6.63095Z" fill="white"/>
</g>
<defs>
<linearGradient id="paint0_linear_717_214" x1="1.42893" y1="15.5779" x2="16.2992" y2="2.70785" gradientUnits="userSpaceOnUse">
<stop stop-color="#FFDD55"/>
<stop offset="0.5" stop-color="#FF543E"/>
<stop offset="1" stop-color="#C837AB"/>
</linearGradient>
<clipPath id="clip0_717_214">
<rect width="16" height="16" fill="white" transform="translate(0.398438 0.59967)"/>
</clipPath>
</defs>
</svg>
