<svg width="25" height="24" viewBox="0 0 25 24" fill="none" xmlns="http://www.w3.org/2000/svg">
<g clip-path="url(#clip0_245_412)">
<path d="M18.6107 0.217773H6.8289C3.52999 0.217773 0.937988 2.80977 0.937988 6.10868V17.8905C0.937988 21.1894 3.52999 23.7814 6.8289 23.7814H18.6107C21.9096 23.7814 24.5016 21.1894 24.5016 17.8905V6.10868C24.5016 2.80977 21.9096 0.217773 18.6107 0.217773ZM22.1453 17.8905C22.1453 19.8934 20.6136 21.425 18.6107 21.425H6.8289C4.82599 21.425 3.29435 19.8934 3.29435 17.8905V6.10868C3.29435 4.10577 4.82599 2.57414 6.8289 2.57414H18.6107C20.6136 2.57414 22.1453 4.10577 22.1453 6.10868V17.8905Z" fill="#2352EE"/>
<path d="M12.7194 6.1084C9.42049 6.1084 6.82849 8.7004 6.82849 11.9993C6.82849 15.2982 9.42049 17.8902 12.7194 17.8902C16.0183 17.8902 18.6103 15.2982 18.6103 11.9993C18.6103 8.7004 16.0183 6.1084 12.7194 6.1084ZM12.7194 15.5339C10.7165 15.5339 9.18485 14.0022 9.18485 11.9993C9.18485 9.9964 10.7165 8.46476 12.7194 8.46476C14.7223 8.46476 16.2539 9.9964 16.2539 11.9993C16.2539 14.0022 14.7223 15.5339 12.7194 15.5339Z" fill="#2352EE"/>
<path d="M18.6109 7.28703C19.2616 7.28703 19.7891 6.75954 19.7891 6.10885C19.7891 5.45815 19.2616 4.93066 18.6109 4.93066C17.9602 4.93066 17.4327 5.45815 17.4327 6.10885C17.4327 6.75954 17.9602 7.28703 18.6109 7.28703Z" fill="#2352EE"/>
</g>
<defs>
<clipPath id="clip0_245_412">
<rect width="23.5636" height="23.5636" fill="white" transform="translate(0.937988 0.217773)"/>
</clipPath>
</defs>
</svg>
