<svg width="14" height="14" viewBox="0 0 14 14" fill="none" xmlns="http://www.w3.org/2000/svg">
<path d="M13.9977 13.9999V13.9993H14.0012V8.86478C14.0012 6.35295 13.4605 4.41803 10.524 4.41803C9.11229 4.41803 8.16496 5.1927 7.77821 5.92711H7.73738V4.65253H4.95312V13.9993H7.85229V9.37111C7.85229 8.15253 8.08329 6.9742 9.59238 6.9742C11.0793 6.9742 11.1015 8.36486 11.1015 9.44928V13.9999H13.9977Z" fill="#0077B5"/>
<path d="M0.230469 4.65332H3.13314V14.0001H0.230469V4.65332Z" fill="#0077B5"/>
<path d="M1.68117 6.10352e-05C0.753083 6.10352e-05 0 0.753144 0 1.68123C0 2.60931 0.753083 3.37814 1.68117 3.37814C2.60925 3.37814 3.36233 2.60931 3.36233 1.68123C3.36175 0.753144 2.60867 6.10352e-05 1.68117 6.10352e-05V6.10352e-05Z" fill="#0077B5"/>
</svg>
