<svg width="19" height="19" viewBox="0 0 19 19" fill="none" xmlns="http://www.w3.org/2000/svg">
<path d="M15.8333 5.73002L9.55682 11.3509L3.16665 5.71262V15.0417H10.2916V16.625H2.37498C1.93776 16.625 1.58331 16.2706 1.58331 15.8333V3.16667C1.58331 2.72945 1.93776 2.375 2.37498 2.375H16.625C17.0622 2.375 17.4166 2.72945 17.4166 3.16667V8.70833H15.8333V5.73002ZM15.4383 3.95833H3.57155L9.54898 9.23242L15.4383 3.95833ZM17.4166 13.4583H18.2083V17.4167H11.875V13.4583H12.6666V12.6667C12.6666 11.355 13.7299 10.2917 15.0416 10.2917C16.3534 10.2917 17.4166 11.355 17.4166 12.6667V13.4583ZM15.8333 13.4583V12.6667C15.8333 12.2294 15.4789 11.875 15.0416 11.875C14.6044 11.875 14.25 12.2294 14.25 12.6667V13.4583H15.8333Z" fill="#0F0F0F"/>
</svg>
