<svg width="25" height="24" viewBox="0 0 25 24" fill="none" xmlns="http://www.w3.org/2000/svg">
<g clip-path="url(#clip0_245_408)">
<path d="M13.0715 0.217773C6.61327 0.217773 3.17871 4.35632 3.17871 8.86896C3.17871 10.9618 4.34811 13.5716 6.22003 14.3993C6.50428 14.5274 6.65892 14.4729 6.72225 14.2093C6.77822 14.009 7.02418 13.0443 7.14347 12.5892C7.18029 12.4434 7.16115 12.3168 7.04332 12.1798C6.4218 11.4611 5.92842 10.1518 5.92842 8.92346C5.92842 5.7761 8.43069 2.72005 12.6885 2.72005C16.3705 2.72005 18.9464 5.11187 18.9464 8.53317C18.9464 12.3993 16.9007 15.0738 14.2423 15.0738C12.771 15.0738 11.6753 13.9192 12.0228 12.4906C12.4426 10.7895 13.2659 8.96028 13.2659 7.73344C13.2659 6.63326 12.6444 5.72308 11.3748 5.72308C9.87698 5.72308 8.66192 7.20618 8.66192 9.1974C8.66192 10.4625 9.10965 11.3167 9.10965 11.3167C9.10965 11.3167 7.62802 17.3022 7.35261 18.42C6.88721 20.3126 7.41594 23.3775 7.4616 23.6411C7.48958 23.7869 7.65306 23.8325 7.74437 23.7133C7.89018 23.5218 9.6811 20.9665 10.1833 19.1196C10.3659 18.4465 11.1156 15.7175 11.1156 15.7175C11.609 16.6085 13.0332 17.3552 14.5502 17.3552C19.0628 17.3552 22.3236 13.389 22.3236 8.46689C22.3074 3.74806 18.269 0.217773 13.0715 0.217773Z" fill="#2352EE"/>
</g>
<defs>
<clipPath id="clip0_245_408">
<rect width="23.5636" height="23.5636" fill="white" transform="translate(0.968872 0.217773)"/>
</clipPath>
</defs>
</svg>
