<svg width="18" height="18" viewBox="0 0 18 18" fill="none" xmlns="http://www.w3.org/2000/svg">
<g clip-path="url(#clip0_153_60)">
<path d="M11.9689 8.6481L8.23122 5.93112C8.09406 5.83169 7.91197 5.81671 7.76162 5.89398C7.61008 5.97065 7.51544 6.12638 7.51544 6.2947V11.7269C7.51544 11.897 7.61008 12.0521 7.76162 12.1288C7.82571 12.1611 7.8958 12.1773 7.96648 12.1773C8.05872 12.1773 8.15216 12.1479 8.23122 12.0898L11.9689 9.37526C12.0869 9.28841 12.1558 9.15424 12.1558 9.01168C12.1564 8.86673 12.0857 8.73315 11.9689 8.6481Z" fill="#0F0F0F"/>
<path d="M9.0003 0.0010376C4.02875 0.0010376 0 4.02979 0 9.00134C0 13.9711 4.02875 17.9986 9.0003 17.9986C13.9707 17.9986 18 13.9705 18 9.00134C18.0006 4.02979 13.9707 0.0010376 9.0003 0.0010376ZM9.0003 16.497C4.86014 16.497 1.50344 13.1421 1.50344 9.00134C1.50344 4.86237 4.86014 1.50328 9.0003 1.50328C13.1399 1.50328 16.496 4.86177 16.496 9.00134C16.4966 13.1421 13.1399 16.497 9.0003 16.497Z" fill="#0F0F0F"/>
</g>
<defs>
<clipPath id="clip0_153_60">
<rect width="18" height="18" fill="white"/>
</clipPath>
</defs>
</svg>
