<svg width="30" height="23" viewBox="0 0 30 23" fill="none" xmlns="http://www.w3.org/2000/svg">
<path d="M27.3613 2.13154C29.0783 3.9543 30.0003 6.00002 30.0003 9.31619C30.0003 15.1485 25.9062 20.3772 19.9493 22.9614L18.4615 20.6654C24.0203 17.6577 25.1067 13.7565 25.541 11.2967C24.646 11.7595 23.4743 11.9222 22.3258 11.8159C19.3185 11.537 16.9483 9.06819 16.9483 6.00002C16.9483 2.77835 19.56 0.166687 22.7817 0.166687C24.5702 0.166687 26.2803 0.984103 27.3613 2.13154ZM10.6946 2.13154C12.4117 3.9543 13.3337 6.00002 13.3337 9.31619C13.3337 15.1485 9.23947 20.3772 3.28267 22.9614L1.79485 20.6654C7.35359 17.6577 8.44002 13.7565 8.87427 11.2967C7.97927 11.7595 6.80769 11.9222 5.65914 11.8159C2.65185 11.537 0.281738 9.06819 0.281738 6.00002C0.281738 2.77835 2.8934 0.166687 6.11507 0.166687C7.90349 0.166687 9.61372 0.984103 10.6946 2.13154Z" fill="white"/>
</svg>
