<svg width="20" height="20" viewBox="0 0 20 20" fill="none" xmlns="http://www.w3.org/2000/svg">
<path d="M7.5 5C3.365 5 0 8.365 0 12.5C0 16.635 3.365 20 7.5 20C11.635 20 15 16.635 15 12.5C15 8.365 11.635 5 7.5 5ZM7.5 18.3333C4.28333 18.3333 1.66667 15.7167 1.66667 12.5C1.66667 9.28333 4.28333 6.66667 7.5 6.66667C10.7167 6.66667 13.3333 9.28333 13.3333 12.5C13.3333 15.7167 10.7167 18.3333 7.5 18.3333ZM4.16667 11.25C4.16667 10.56 4.72667 10 5.41667 10C6.10667 10 6.66667 10.56 6.66667 11.25C6.66667 11.94 6.10667 12.5 5.41667 12.5C4.72667 12.5 4.16667 11.94 4.16667 11.25ZM10.8333 11.25C10.8333 11.94 10.2733 12.5 9.58333 12.5C8.89333 12.5 8.33333 11.94 8.33333 11.25C8.33333 10.56 8.89333 10 9.58333 10C10.2733 10 10.8333 10.56 10.8333 11.25ZM20 4.16667H17.5V6.66667H15.8333V4.16667H13.3333V2.5H15.8333V0H17.5V2.5H20V4.16667ZM9.4475 14.2092L10.5558 15.4542C10.5 15.5042 9.18 16.6667 7.5 16.6667C5.82 16.6667 4.5 15.5042 4.44417 15.4542L5.555 14.2117C5.56083 14.2167 6.46583 15 7.49917 15C8.5325 15 9.43833 14.2175 9.4475 14.2092Z" fill="#0F0F0F"/>
</svg>
