<svg width="18" height="18" viewBox="0 0 18 18" fill="none" xmlns="http://www.w3.org/2000/svg">
<path d="M4.29318 4.95273H1.3416C0.58943 4.95273 0 5.54216 0 6.29436V11.7279C0 12.4801 0.58943 13.0695 1.3416 13.0695H4.29314C4.66365 13.0695 4.96396 12.7694 4.96396 12.3987V5.62354C4.96399 5.25303 4.66369 4.95273 4.29318 4.95273ZM3.62236 11.7279H1.3416L1.3313 6.29524C1.3313 6.29524 1.33443 6.29436 1.3416 6.29436H3.62236V11.7279Z" fill="#0F0F0F"/>
<path d="M10.1656 2.27822C9.96594 2.15658 9.71686 2.1474 9.50937 2.25453L4.1203 5.02719L4.73409 6.22012L9.14532 3.95053V14.0496L4.73409 11.7798L4.1203 12.9729L9.50933 15.7456C9.6057 15.7952 9.71102 15.8198 9.8161 15.8198C9.93753 15.8198 10.0585 15.787 10.1654 15.7217C10.3651 15.6 10.4869 15.3829 10.4869 15.149V2.85088C10.487 2.61699 10.3653 2.39986 10.1656 2.27822Z" fill="#0F0F0F"/>
<path d="M12.0745 6.3165C11.704 6.3165 11.4037 6.6168 11.4037 6.98731C11.4037 7.35783 11.704 7.65813 12.0745 7.65813C12.9499 7.65813 13.6621 8.37029 13.6621 9.24572C13.6621 10.1211 12.9499 10.8335 12.0745 10.8335C11.704 10.8335 11.4037 11.1338 11.4037 11.5043C11.4037 11.8748 11.704 12.1751 12.0745 12.1751C13.6898 12.1751 15.0037 10.861 15.0037 9.24572C15.0037 7.63039 13.6898 6.3165 12.0745 6.3165Z" fill="#0F0F0F"/>
<path d="M12.0745 3.32022C11.704 3.32022 11.4037 3.62053 11.4037 3.99104C11.4037 4.36155 11.704 4.66185 12.0745 4.66185C14.6021 4.66185 16.6584 6.71811 16.6584 9.2457C16.6584 11.7858 14.6021 13.8521 12.0745 13.8521C11.704 13.8521 11.4037 14.1524 11.4037 14.5229C11.4037 14.8934 11.704 15.1938 12.0745 15.1938C15.3418 15.1938 18 12.5257 18 9.2457C18 5.97842 15.3418 3.32022 12.0745 3.32022Z" fill="#0F0F0F"/>
</svg>
