<svg width="17" height="13" viewBox="0 0 17 13" fill="none" xmlns="http://www.w3.org/2000/svg">
<path d="M16.0787 1.63766C15.5075 1.88822 14.8989 2.0543 14.2643 2.13494C14.9171 1.74518 15.4154 1.1327 15.6496 0.394457C15.041 0.757337 14.369 1.01366 13.6528 1.1567C13.0749 0.541337 12.2512 0.160217 11.3527 0.160217C9.60931 0.160217 8.20579 1.57526 8.20579 3.30998C8.20579 3.55958 8.22691 3.79958 8.27875 4.02806C5.66083 3.90038 3.34435 2.64566 1.78819 0.734297C0.675358 2.73935 1.91875 4.38326 2.75587 4.94294C2.24995 4.93334 1.75363 4.78646 1.33315 4.5551C1.33315 6.11817 2.42467 7.39094 3.85603 7.68374C3.54307 7.78761 2.85936 7.84406 2.43427 7.73366C2.84227 8.9807 4.00003 9.8975 5.37667 9.92726C4.30531 10.7653 2.72649 11.4485 0.71875 11.2271C2.11363 12.1266 3.76675 12.6402 5.54947 12.6402C11.344 12.6402 14.512 7.84022 14.512 3.67958C14.512 3.54038 14.5072 3.40598 14.5005 3.27254C15.1255 2.82902 15.6506 2.2751 16.0787 1.63766Z" fill="#1DA1F3"/>
</svg>
